<svg width="225" height="199" viewBox="0 0 225 199" fill="none" xmlns="http://www.w3.org/2000/svg">
<g filter="url(#filter0_ddd)">
<path d="M192.793 30.5L32.2068 30.5C30.7271 30.5 29.7598 32.051 30.4107 33.3798L49.875 73.1153L64.9825 103.957C65.3184 104.642 66.0152 105.077 66.7786 105.077L158.221 105.077C158.985 105.077 159.682 104.642 160.017 103.957L175.125 73.1153L194.589 33.3798C195.24 32.0511 194.273 30.5 192.793 30.5Z" stroke="url(#paint0_linear)" stroke-width="2"/>
<path d="M151.043 115.731L73.9568 115.731C72.4771 115.731 71.5098 117.282 72.1607 118.611L72.8107 119.937C73.1465 120.623 73.8433 121.058 74.6068 121.058L150.393 121.058C151.157 121.058 151.854 120.623 152.189 119.937L152.839 118.611C153.49 117.282 152.523 115.731 151.043 115.731Z" stroke="url(#paint1_linear)" stroke-width="2"/>
<path d="M142.565 137.038L82.4349 137.038C81.6715 137.038 80.9746 136.604 80.6388 135.918L79.9888 134.591C79.3379 133.263 80.3052 131.712 81.7849 131.712L143.215 131.712C144.695 131.712 145.662 133.263 145.011 134.591L144.361 135.918C144.025 136.604 143.329 137.038 142.565 137.038Z" stroke="url(#paint2_linear)" stroke-width="2"/>
<path d="M135.387 147.692L89.613 147.692C88.1334 147.692 87.166 149.243 87.8169 150.572L88.4669 151.899C88.8027 152.585 89.4996 153.019 90.263 153.019L134.737 153.019C135.5 153.019 136.197 152.585 136.533 151.899L137.183 150.572C137.834 149.243 136.867 147.692 135.387 147.692Z" stroke="url(#paint3_linear)" stroke-width="2"/>
<path d="M98.0911 169L126.909 169C127.672 169 128.369 168.565 128.705 167.88L129.355 166.553C130.006 165.224 129.039 163.673 127.559 163.673L97.4411 163.673C95.9615 163.673 94.9941 165.224 95.6451 166.553L96.295 167.88C96.6309 168.565 97.3277 169 98.0911 169Z" stroke="url(#paint4_linear)" stroke-width="2"/>
</g>
<defs>
<filter id="filter0_ddd" x="0.203003" y="0.500015" width="224.594" height="198.5" filterUnits="userSpaceOnUse" color-interpolation-filters="sRGB">
<feFlood flood-opacity="0" result="BackgroundImageFix"/>
<feColorMatrix in="SourceAlpha" type="matrix" values="0 0 0 0 0 0 0 0 0 0 0 0 0 0 0 0 0 0 127 0"/>
<feOffset dx="1"/>
<feGaussianBlur stdDeviation="1"/>
<feColorMatrix type="matrix" values="0 0 0 0 0.929412 0 0 0 0 0.392157 0 0 0 0 0.65098 0 0 0 1 0"/>
<feBlend mode="normal" in2="BackgroundImageFix" result="effect1_dropShadow"/>
<feColorMatrix in="SourceAlpha" type="matrix" values="0 0 0 0 0 0 0 0 0 0 0 0 0 0 0 0 0 0 127 0"/>
<feOffset dx="-2"/>
<feGaussianBlur stdDeviation="1"/>
<feColorMatrix type="matrix" values="0 0 0 0 0.309804 0 0 0 0 0.819608 0 0 0 0 0.772549 0 0 0 1 0"/>
<feBlend mode="normal" in2="effect1_dropShadow" result="effect2_dropShadow"/>
<feColorMatrix in="SourceAlpha" type="matrix" values="0 0 0 0 0 0 0 0 0 0 0 0 0 0 0 0 0 0 127 0"/>
<feOffset/>
<feGaussianBlur stdDeviation="14.5"/>
<feColorMatrix type="matrix" values="0 0 0 0 0.419608 0 0 0 0 0.27451 0 0 0 0 0.756863 0 0 0 1 0"/>
<feBlend mode="normal" in2="effect2_dropShadow" result="effect3_dropShadow"/>
<feBlend mode="normal" in="SourceGraphic" in2="effect3_dropShadow" result="shape"/>
</filter>
<linearGradient id="paint0_linear" x1="49" y1="35.5" x2="163.522" y2="138.72" gradientUnits="userSpaceOnUse">
<stop stop-color="#B2F5EA"/>
<stop offset="0.975322" stop-color="#9F7AEA"/>
</linearGradient>
<linearGradient id="paint1_linear" x1="49" y1="35.5" x2="163.522" y2="138.72" gradientUnits="userSpaceOnUse">
<stop stop-color="#B2F5EA"/>
<stop offset="0.975322" stop-color="#9F7AEA"/>
</linearGradient>
<linearGradient id="paint2_linear" x1="49" y1="35.5" x2="163.522" y2="138.72" gradientUnits="userSpaceOnUse">
<stop stop-color="#B2F5EA"/>
<stop offset="0.975322" stop-color="#9F7AEA"/>
</linearGradient>
<linearGradient id="paint3_linear" x1="49" y1="35.5" x2="163.522" y2="138.72" gradientUnits="userSpaceOnUse">
<stop stop-color="#B2F5EA"/>
<stop offset="0.975322" stop-color="#9F7AEA"/>
</linearGradient>
<linearGradient id="paint4_linear" x1="49" y1="35.5" x2="163.522" y2="138.72" gradientUnits="userSpaceOnUse">
<stop stop-color="#B2F5EA"/>
<stop offset="0.975322" stop-color="#9F7AEA"/>
</linearGradient>
</defs>
</svg>
